<?xml version="1.0" encoding="utf-8"?>
<!-- Generator: Adobe Illustrator 24.0.2, SVG Export Plug-In . SVG Version: 6.00 Build 0)  -->
<svg version="1.1" id="Layer_1" xmlns="http://www.w3.org/2000/svg" xmlns:xlink="http://www.w3.org/1999/xlink" x="0px" y="0px"
	 viewBox="0 0 272.1 272.1" style="enable-background:new 0 0 272.1 272.1;" xml:space="preserve">
<style type="text/css">
	.st0{fill:#BAEFEF;}
	.st1{fill:none;stroke:#67B9C9;stroke-width:14;stroke-miterlimit:10;}
	.st2{fill:none;stroke:#67B9C9;stroke-width:14;stroke-linecap:round;stroke-miterlimit:10;}
</style>
<title>bio_inactive</title>
<path class="st0" d="M192.7,270.4c-37.7,2.4-75.6,2.4-113.3,0c-38.3-2.8-74.8-39.3-77.6-77.6c-2.4-37.7-2.4-75.6,0-113.3
	C4.6,41.1,41.1,4.6,79.4,1.8c37.7-2.4,75.6-2.4,113.3,0c38.3,2.8,74.8,39.3,77.6,77.6c2.4,37.7,2.4,75.6,0,113.3
	C267.5,231.1,231.1,267.5,192.7,270.4z"/>
<circle class="st1" cx="136.1" cy="91.8" r="28.8"/>
<path class="st2" d="M102.3,205.6c0-37.5,1.2-64.3,33.8-64.3s33.7,26.8,33.8,64.3"/>
</svg>
