<svg id="Layer_1" data-name="Layer 1" xmlns="http://www.w3.org/2000/svg" viewBox="0 0 285.12 285.12"><defs><style>.cls-1{fill:#baefef;}.cls-2{fill:#67b9c9;}</style></defs><title>bio_inactive</title><path class="cls-1" d="M206.65,285.56q-62.65,2-125.3,0A81.56,81.56,0,0,1,2.44,206.65q-2-62.65,0-125.3A81.56,81.56,0,0,1,81.35,2.44q62.66-2,125.3,0a81.56,81.56,0,0,1,78.91,78.91q2,62.66,0,125.3A81.56,81.56,0,0,1,206.65,285.56Z" transform="translate(-1.44 -1.44)"/><path class="cls-2" d="M144,135.57a35.84,35.84,0,1,1,35.84-35.84A35.88,35.88,0,0,1,144,135.57Zm0-57.68a21.84,21.84,0,1,0,21.84,21.84A21.87,21.87,0,0,0,144,77.89Z" transform="translate(-1.44 -1.44)"/><path class="cls-2" d="M177.78,220.57a7,7,0,0,1-7-7c0-43.67-3.74-57.26-26.78-57.26s-26.74,13.59-26.78,57.26a7,7,0,0,1-7,7h0a7,7,0,0,1-7-7c0-20.05.41-36.36,5.13-48.68,5.83-15.18,17.49-22.56,35.65-22.56s29.82,7.38,35.65,22.56c4.72,12.32,5.11,28.63,5.13,48.68a7,7,0,0,1-7,7Z" transform="translate(-1.44 -1.44)"/></svg>