<?xml version="1.0" encoding="utf-8"?>
<!-- Generator: Adobe Illustrator 22.1.0, SVG Export Plug-In . SVG Version: 6.00 Build 0)  -->
<svg version="1.1" id="Layer_1" xmlns="http://www.w3.org/2000/svg" xmlns:xlink="http://www.w3.org/1999/xlink" x="0px" y="0px"
	 viewBox="0 0 500 500" style="enable-background:new 0 0 500 500;" xml:space="preserve">
<style type="text/css">
	.st0{fill:#E0ABDC;}
</style>
<path class="st0" d="M461.5,312.7c-56.5,6.4-119.2,10.8-187.1,11.5L151.2,447.5c-4.3,4.3-10,6.5-15.7,6.5s-11.4-2.2-15.7-6.5
	c-8.7-8.7-8.7-22.7,0-31.4l29.8-29.8c-2.7,0.2-5.4,0.2-8.2,0.2c-55.5,0-101.2-33.2-108.3-76.1c-20.3-5.6-33.7-25.6-30.7-47
	c2-13.6,10.1-24.7,21.2-31c-5.8-11.2-6.6-24.9-1-37.3c5.7-12.5,16.7-20.9,29-23.8c-2.4-12.4,0.7-25.7,9.6-36
	c9-10.3,21.8-15.3,34.6-14.6c1.2-12.6,7.9-24.5,19.4-31.9c11.5-7.4,25.3-8.5,37.3-4.3c4.7-11.7,14.5-21.3,27.5-25.1
	c13.2-3.9,26.7-1.1,37,6.4c7.8-10,19.9-16.3,33.5-16.3c13.7,0,25.9,6.5,33.7,16.5c10.3-7.4,23.7-10.1,36.8-6.2
	c13.1,3.9,23,13.5,27.6,25.4c11.9-4.2,25.6-3,37,4.4c11.5,7.4,18.3,19.5,19.4,32.1c12.6-0.6,25.4,4.3,34.3,14.6
	c9,10.4,12.1,23.8,9.5,36.3c12.3,2.9,23.1,11.3,28.8,23.7c5.7,12.5,4.9,26.3-1.1,37.5c11,6.3,19,17.4,21,30.8
	C500.9,287.8,484.8,309.4,461.5,312.7z"/>
</svg>
