<svg id="Layer_1" data-name="Layer 1" xmlns="http://www.w3.org/2000/svg" xmlns:xlink="http://www.w3.org/1999/xlink" viewBox="0 0 285.12 285.12"><defs><style>.cls-1{fill:none;}.cls-2{clip-path:url(#clip-path);}.cls-3{fill:#baefef;}.cls-4{fill:#67b9c9;}</style><clipPath id="clip-path" transform="translate(-1.44 -1.44)"><rect class="cls-1" x="1.44" y="1.44" width="285.12" height="285.12"/></clipPath></defs><title>contact_inactive</title><g id="Squircle"><g class="cls-2"><g class="cls-2"><path class="cls-3" d="M206.65,285.56q-62.65,2-125.3,0A81.56,81.56,0,0,1,2.44,206.65q-2-62.65,0-125.3A81.56,81.56,0,0,1,81.35,2.44q62.66-2,125.3,0a81.56,81.56,0,0,1,78.91,78.91q2,62.66,0,125.3a81.56,81.56,0,0,1-78.91,78.91" transform="translate(-1.44 -1.44)"/></g></g></g><path class="cls-4" d="M212.8,119.09a22.44,22.44,0,0,1-7,1.11,22.17,22.17,0,0,1-7-1.13,533.83,533.83,0,0,1-.36,56.72,6.73,6.73,0,0,1-6.12,5.91c-32.05,1.13-64.56,1.13-96.59,0a6.75,6.75,0,0,1-6.13-5.9,535.9,535.9,0,0,1-.08-62.22l49.82,44.85a1.58,1.58,0,0,0,.15.12,4.82,4.82,0,0,0,.44.35l.08.06a4.73,4.73,0,0,0,.56.35,4.37,4.37,0,0,0,.57.29l.15.07a5.89,5.89,0,0,0,.59.21h0a4,4,0,0,0,.68.18,4.72,4.72,0,0,0,.64.1,6.11,6.11,0,0,0,1.56,0,4.72,4.72,0,0,0,.64-.1,4,4,0,0,0,.68-.18s0,0,0,0a5.89,5.89,0,0,0,.59-.21l.15-.07a4.37,4.37,0,0,0,.57-.29A4.73,4.73,0,0,0,148,159a.21.21,0,0,0,.08-.06,4.82,4.82,0,0,0,.44-.35,1.58,1.58,0,0,0,.15-.12l45.84-41.26a22.61,22.61,0,0,1-9.36-10.4l-41.16,37-41.91-37.72q20.88-.63,41.91-.63,20.48,0,40.86.6a22.35,22.35,0,0,1-1.66-8.47,22.64,22.64,0,0,1,.69-5.56c-29.48-.85-59.28-.76-88.71.28a20.81,20.81,0,0,0-19.58,19,549.28,549.28,0,0,0,0,65.3,20.79,20.79,0,0,0,19.59,19c16.19.57,32.49.85,48.8.85s32.61-.28,48.8-.85h0a20.81,20.81,0,0,0,19.58-19.05A549.54,549.54,0,0,0,212.8,119.09Z" transform="translate(-1.44 -1.44)"/><path class="cls-4" d="M205.81,119.7a22.11,22.11,0,1,1,22.11-22.11A22.14,22.14,0,0,1,205.81,119.7Z" transform="translate(-1.44 -1.44)"/><path class="cls-3" d="M205.81,80A17.61,17.61,0,1,1,188.2,97.59,17.6,17.6,0,0,1,205.81,80m0-9a26.61,26.61,0,1,0,26.61,26.61A26.64,26.64,0,0,0,205.81,71Z" transform="translate(-1.44 -1.44)"/></svg>