<svg id="Layer_1" data-name="Layer 1" xmlns="http://www.w3.org/2000/svg" viewBox="0 0 272.14 272.14"><defs><style>.cls-1{fill:#baefef;}.cls-2,.cls-3{fill:none;stroke:#67b9c9;stroke-width:14px;}.cls-2,.cls-3,.cls-4{stroke-miterlimit:10;}.cls-3{stroke-linecap:round;}.cls-4{fill:#67b9c9;stroke:#baefef;stroke-width:9px;}</style></defs><title>contact_inactive</title><path class="cls-1" d="M200.67,278.3a908.09,908.09,0,0,1-113.34,0C49,275.47,12.53,239,9.7,200.67a908.09,908.09,0,0,1,0-113.34C12.53,49,49,12.53,87.33,9.7a908.09,908.09,0,0,1,113.34,0C239,12.53,275.47,49,278.3,87.33a908.09,908.09,0,0,1,0,113.34C275.47,239,239,275.47,200.67,278.3Z" transform="translate(-7.93 -7.93)"/><path class="cls-2" d="M192.56,188.7q-48.56,1.7-97.12,0a13.76,13.76,0,0,1-12.85-12.48,541.17,541.17,0,0,1,0-64.44A13.76,13.76,0,0,1,95.44,99.3q48.56-1.69,97.12,0a13.76,13.76,0,0,1,12.85,12.48,541.17,541.17,0,0,1,0,64.44A13.76,13.76,0,0,1,192.56,188.7Z" transform="translate(-7.93 -7.93)"/><line class="cls-3" x1="79.82" y1="94.66" x2="136.07" y2="145.29"/><line class="cls-3" x1="192.32" y1="94.66" x2="136.07" y2="145.29"/><circle class="cls-4" cx="197.27" cy="89.57" r="25.49"/></svg>