<svg id="Layer_1" data-name="Layer 1" xmlns="http://www.w3.org/2000/svg" xmlns:xlink="http://www.w3.org/1999/xlink" viewBox="0 0 285.12 285.12"><defs><style>.cls-1{fill:none;}.cls-2{clip-path:url(#clip-path);}.cls-3{fill:#baefef;}.cls-4{fill:#67b9c9;}</style><clipPath id="clip-path" transform="translate(-1.44 -1.44)"><rect class="cls-1" x="1.44" y="1.44" width="285.12" height="285.12"/></clipPath></defs><title>gallery_inactive</title><g id="Squircle"><g class="cls-2"><g class="cls-2"><path class="cls-3" d="M206.65,285.56q-62.65,2-125.3,0A81.56,81.56,0,0,1,2.44,206.65q-2-62.65,0-125.3A81.56,81.56,0,0,1,81.35,2.44q62.66-2,125.3,0a81.56,81.56,0,0,1,78.91,78.91q2,62.66,0,125.3a81.56,81.56,0,0,1-78.91,78.91" transform="translate(-1.44 -1.44)"/></g></g></g><path class="cls-4" d="M212.71,93.76a19.9,19.9,0,0,0-18.48-18.47c-33.33-1.64-67.13-1.64-100.47,0A19.9,19.9,0,0,0,75.29,93.77c-1.64,33.33-1.64,67.13,0,100.47a19.9,19.9,0,0,0,18.48,18.47c16.66.82,33.45,1.23,50.23,1.23s33.57-.41,50.23-1.23h0a19.9,19.9,0,0,0,18.47-18.48C214.35,160.9,214.35,127.1,212.71,93.76Zm-123.44.71a5.83,5.83,0,0,1,5.18-5.2c16.44-.81,33-1.21,49.55-1.21s33.1.4,49.53,1.21a5.83,5.83,0,0,1,5.2,5.18c1,20.52,1.38,41.23,1.13,61.88H88.14C87.89,135.67,88.27,115,89.27,94.47Zm109.46,99.06a5.83,5.83,0,0,1-5.19,5.2c-32.87,1.61-66.21,1.61-99.07,0a5.83,5.83,0,0,1-5.2-5.18Q88.7,182,88.4,170.33H199.6Q199.3,182,198.73,193.53Z" transform="translate(-1.44 -1.44)"/></svg>