<?xml version="1.0" encoding="utf-8"?>
<!-- Generator: Adobe Illustrator 24.0.2, SVG Export Plug-In . SVG Version: 6.00 Build 0)  -->
<svg version="1.1" id="Layer_1" xmlns="http://www.w3.org/2000/svg" xmlns:xlink="http://www.w3.org/1999/xlink" x="0px" y="0px"
	 viewBox="0 0 272.1 272.1" style="enable-background:new 0 0 272.1 272.1;" xml:space="preserve">
<style type="text/css">
	.st0{fill:#BAEFEF;}
	.st1{fill:none;stroke:#67B9C9;stroke-width:14;stroke-linecap:round;stroke-miterlimit:10;}
</style>
<title>gallery_inactive</title>
<path class="st0" d="M192.7,270.4c-37.7,2.4-75.6,2.4-113.3,0c-38.3-2.8-74.8-39.3-77.6-77.6c-2.4-37.7-2.4-75.6,0-113.3
	C4.6,41.1,41.1,4.6,79.4,1.8c37.7-2.4,75.6-2.4,113.3,0c38.3,2.8,74.8,39.3,77.6,77.6c2.4,37.7,2.4,75.6,0,113.3
	C267.5,231.1,231.1,267.5,192.7,270.4z"/>
<path class="st1" d="M186,197.8c-33.3,1.6-66.5,1.6-99.8,0c-6.3-0.5-11.4-5.5-11.8-11.8c-1.6-33.3-1.6-66.5,0-99.8
	c0.5-6.3,5.5-11.4,11.8-11.8c33.3-1.6,66.5-1.6,99.8,0c6.3,0.5,11.4,5.5,11.8,11.8c1.6,33.3,1.6,66.5,0,99.8
	C197.3,192.3,192.3,197.3,186,197.8z"/>
<line class="st1" x1="75" y1="155.4" x2="197.2" y2="155.4"/>
</svg>
