<svg id="Layer_1" data-name="Layer 1" xmlns="http://www.w3.org/2000/svg" viewBox="0 0 272.14 272.14"><defs><style>.cls-1{fill:#fff;}.cls-2{fill:none;stroke:#858ae3;stroke-linecap:round;stroke-miterlimit:10;stroke-width:14px;}</style></defs><title>gallery_active</title><path class="cls-1" d="M200.67,278.3a908.09,908.09,0,0,1-113.34,0C49,275.47,12.53,239,9.7,200.67a908.09,908.09,0,0,1,0-113.34C12.53,49,49,12.53,87.33,9.7a908.09,908.09,0,0,1,113.34,0C239,12.53,275.47,49,278.3,87.33a908.09,908.09,0,0,1,0,113.34C275.47,239,239,275.47,200.67,278.3Z" transform="translate(-7.93 -7.93)"/><path class="cls-2" d="M193.89,205.72q-49.89,2.44-99.78,0a12.8,12.8,0,0,1-11.83-11.83q-2.44-49.89,0-99.78A12.8,12.8,0,0,1,94.11,82.28q49.89-2.44,99.78,0a12.8,12.8,0,0,1,11.83,11.83q2.44,49.89,0,99.78A12.8,12.8,0,0,1,193.89,205.72Z" transform="translate(-7.93 -7.93)"/><line class="cls-2" x1="74.96" y1="155.4" x2="197.18" y2="155.4"/></svg>