<?xml version="1.0" encoding="utf-8"?>
<!-- Generator: Adobe Illustrator 22.1.0, SVG Export Plug-In . SVG Version: 6.00 Build 0)  -->
<svg version="1.1" id="Layer_1" xmlns="http://www.w3.org/2000/svg" xmlns:xlink="http://www.w3.org/1999/xlink" x="0px" y="0px"
	 viewBox="0 0 500 500" style="enable-background:new 0 0 500 500;" xml:space="preserve">
<style type="text/css">
	.st0{fill:#FF5C6E;}
</style>
<g>
	<path class="st0" d="M455.4,71.6C402.8,19,317.6,18.8,264.8,71.1c-0.2,0.2-0.4,0.3-0.5,0.5l-14,14l-14.3-14.3
		c-0.1-0.1-0.2-0.2-0.3-0.3C183,18.8,97.8,19,45.2,71.6c-52.6,52.6-52.8,137.8-0.5,190.6c0.1,0.1,0.2,0.2,0.3,0.3l0.3,0.3l14,14
		l191.1,191.1l205.1-205.1c0.2-0.2,0.4-0.3,0.5-0.5C508.2,209.4,508,124.2,455.4,71.6z M455.7,259.5c0.1-0.1,0.2-0.2,0.3-0.3l0,0
		L455.7,259.5z"/>
</g>
<g>
	<path class="st0" d="M456,259.2l-0.3,0.3C455.8,259.4,455.9,259.3,456,259.2L456,259.2z"/>
</g>
<path class="st0" d="M456,259.2l-0.3,0.3C455.8,259.4,455.9,259.3,456,259.2L456,259.2z"/>
<path class="st0" d="M264.8,68.1l-0.5,0.5C264.5,68.4,264.6,68.3,264.8,68.1L264.8,68.1z"/>
</svg>
