<svg id="Group_21" data-name="Group 21" xmlns="http://www.w3.org/2000/svg" viewBox="0 0 29.044 29.044">
  <defs>
    <style>
      .cls-1 {
        fill: #78aaaa;
      }
    </style>
  </defs>
  <g id="In-White-0p5in-TM" transform="translate(0)">
    <g id="Group_20" data-name="Group 20">
      <g id="Group_19" data-name="Group 19">
        <path id="Path_12" data-name="Path 12" class="cls-1" d="M31.266,0H6.5A2.083,2.083,0,0,0,4.4,2.1V26.947a2.083,2.083,0,0,0,2.1,2.1H31.266a2.153,2.153,0,0,0,2.178-2.1V2.1A2.153,2.153,0,0,0,31.266,0ZM12.952,24.768H8.676V10.892h4.276Zm-2.1-15.813a2.5,2.5,0,1,1,2.5-2.5A2.463,2.463,0,0,1,10.854,8.955ZM29.088,24.768H24.812V17.991c0-1.614,0-3.711-2.259-3.711s-2.582,1.775-2.582,3.55v6.858H15.7v-13.8H19.81v1.856h.081A4.515,4.515,0,0,1,24,10.488c4.357,0,5.163,2.9,5.163,6.616v7.664Z" transform="translate(-4.4)"/>
      </g>
    </g>
  </g>
</svg>
