<svg xmlns="http://www.w3.org/2000/svg" viewBox="0 0 48.451 48.451">
  <defs>
    <style>
      .cls-1 {
        fill: #f3ffff;
      }

      .cls-2, .cls-6 {
        fill: none;
      }

      .cls-2 {
        stroke: #185858;
        stroke-width: 2px;
      }

      .cls-3, .cls-4 {
        fill: #185858;
        stroke: #f3ffff;
      }

      .cls-4 {
        stroke-width: 0.5px;
      }

      .cls-5 {
        stroke: none;
      }
    </style>
  </defs>
  <g id="Symbol_10_1" data-name="Symbol 10 – 1" transform="translate(-262 -543)">
    <rect id="Rectangle_23" data-name="Rectangle 23" class="cls-1" width="48.451" height="48.451" rx="24" transform="translate(262 543)"/>
    <g id="Rectangle_24" data-name="Rectangle 24" class="cls-2" transform="translate(277.889 559.206)">
      <rect class="cls-5" width="17.313" height="17.313" rx="6"/>
      <rect class="cls-6" x="1" y="1" width="15.313" height="15.313" rx="5"/>
    </g>
    <g id="Rectangle_26" data-name="Rectangle 26" class="cls-3" transform="translate(286.091 564.223)">
      <rect class="cls-5" width="4.313" height="4.313" rx="1"/>
      <rect class="cls-6" x="0.5" y="0.5" width="3.313" height="3.313" rx="0.5"/>
    </g>
    <g id="Rectangle_25" data-name="Rectangle 25" class="cls-4" transform="translate(287.12 565.284) rotate(-45)">
      <path class="cls-5" d="M0,0H10.658A1.572,1.572,0,0,1,12.23,1.572v0a1.572,1.572,0,0,1-1.572,1.572H0a0,0,0,0,1,0,0V0A0,0,0,0,1,0,0Z"/>
      <path class="cls-6" d="M-.048-.25H10.658A1.822,1.822,0,0,1,12.48,1.572v0a1.822,1.822,0,0,1-1.822,1.822H-.048a.2.2,0,0,1-.2-.2V-.048a.2.2,0,0,1,.2-.2Z"/>
    </g>
  </g>
</svg>
