<svg id="Group_18" data-name="Group 18" xmlns="http://www.w3.org/2000/svg" viewBox="0 0 28.443 23.127">
  <defs>
    <style>
      .cls-1 {
        fill: #78aaaa;
      }
    </style>
  </defs>
  <g id="Logo__x2014__FIXED" transform="translate(0 0)">
    <g id="Group_15" data-name="Group 15">
      <path id="Path_11" data-name="Path 11" class="cls-1" d="M84.035,121.527c10.733,0,16.606-8.9,16.606-16.606,0-.25,0-.5-.011-.751a11.89,11.89,0,0,0,2.914-3.027,11.828,11.828,0,0,1-3.358.922,5.872,5.872,0,0,0,2.572-3.232,11.609,11.609,0,0,1-3.71,1.411,5.838,5.838,0,0,0-10.1,3.995,6.45,6.45,0,0,0,.148,1.332,16.573,16.573,0,0,1-12.03-6.1,5.86,5.86,0,0,0,1.81,7.8,5.9,5.9,0,0,1-2.641-.728v.08a5.849,5.849,0,0,0,4.678,5.725,5.87,5.87,0,0,1-2.629.1,5.836,5.836,0,0,0,5.452,4.052,11.706,11.706,0,0,1-7.25,2.5,11.233,11.233,0,0,1-1.389-.08,16.6,16.6,0,0,0,8.935,2.606" transform="translate(-75.1 -98.4)"/>
    </g>
  </g>
</svg>
